<!-- Generated by SVGMaker - https://svgmaker.io -->
<!-- Prompt: generate a svg of this stickman head.. no background just the white strokes -->
<!-- Quality: medium -->
<!-- Type: edit -->
<!-- Created: 2026-06-30T23:39:46.477Z -->
<svg version="1.1" xmlns="http://www.w3.org/2000/svg" style="display: block;" viewBox="0 0 2048 2048" width="1024" height="1024" preserveAspectRatio="xMidYMid meet"><path transform="translate(0,0)" fill="rgb(254,254,254)" d="M 1009.31 151.448 C 1012.97 150.709 1030.48 150.702 1035.17 150.736 C 1246.81 150.757 1449.63 235.504 1598.36 386.063 C 1736.94 526.474 1816.94 737.005 1815.49 933.593 C 1813.93 1145.01 1736.58 1353.04 1585.56 1503.24 C 1475.64 1612.55 1341.84 1686.23 1189.77 1716.89 C 1153.98 1724.1 1108.31 1731.48 1071.8 1731.18 C 1071.35 1781.45 1073.53 1839.12 1070.57 1889.9 C 1070.27 1894.92 1063.98 1902.15 1059.48 1905.04 C 1047.19 1913.56 1029.53 1912.32 1019.25 1901.21 C 1015.86 1897.57 1013.59 1893.04 1012.7 1888.14 C 1011.01 1878.76 1011.34 1843.66 1011.39 1832.62 C 1011.57 1799.48 1010.33 1764.22 1011.59 1731.26 C 974.114 1731.07 928.795 1724.34 892.221 1716.76 C 756.925 1689.85 630.981 1628.13 526.812 1537.7 C 366.764 1395.12 270.467 1194.4 259.416 980.336 C 232.539 531.066 563.424 177.924 1009.31 151.448 z M 1054.25 1674.84 C 1099.7 1672.26 1134.32 1669.35 1179.55 1660.05 C 1331.42 1628.13 1469.22 1548.76 1573.05 1433.42 C 1701.76 1289.15 1767.49 1085.79 1756.49 893.56 C 1747.4 701.07 1661.13 520.364 1517.16 392.267 C 1402.75 291.306 1259.54 228.807 1107.72 213.584 C 1085 211.381 1045.77 209.072 1023.19 210.349 L 1021.81 210.436 C 990.572 211.815 969.892 212.661 937.969 217.321 C 771.047 240.962 617.281 321.135 502.334 444.462 C 374.807 584.539 308.042 769.477 316.683 958.712 C 325.504 1158.33 405.476 1348.17 554.219 1483.65 C 691.009 1607.85 869.49 1676.09 1054.25 1674.84 z"></path><path transform="translate(0,0)" fill="rgb(254,254,254)" d="M 1263.05 1202.35 C 1288.58 1204.59 1303.71 1226.18 1284.27 1247.56 C 1164.05 1379.77 959.172 1403.56 811.463 1303.34 C 794.308 1291.7 780.625 1278.97 764.885 1265.73 C 752.734 1254.25 729.912 1234.2 742.036 1213.91 C 748.132 1203.71 770.72 1199.99 781.006 1205.9 C 792.219 1212.34 802.527 1222.84 812.477 1231.28 C 921.364 1322.31 1071.52 1332.27 1190.69 1252.79 C 1199.29 1246.97 1207.59 1240.72 1215.57 1234.08 C 1230.57 1221.35 1242.25 1206.01 1261.74 1202.57 L 1263.05 1202.35 z"></path><path transform="translate(0,0)" fill="rgb(254,254,254)" d="M 740.334 755.236 C 767.02 752.725 783.605 776.899 790.252 799.738 C 802.759 842.708 800.432 929.834 747.437 945.442 C 716.832 946.168 704.034 919.016 696.538 893.58 C 684.66 853.274 690.262 768.09 740.334 755.236 z"></path><path transform="translate(0,0)" fill="rgb(254,254,254)" d="M 1282.25 755.346 C 1357.1 750.498 1356.57 925.504 1293.43 944.995 C 1263.31 947.072 1248.59 923.586 1241.14 898.006 C 1228.8 855.639 1229.61 770.964 1282.25 755.346 z"></path></svg>